<svg width="543" height="72" viewBox="0 0 543 72" fill="none" xmlns="http://www.w3.org/2000/svg">
<path d="M6.65188e-05 70.7727V0.954521H27.5455C32.841 0.954521 37.3523 1.96589 41.0796 3.98861C44.8069 5.98861 47.6478 8.7727 49.6023 12.3409C51.5796 15.8863 52.5683 19.9772 52.5683 24.6136C52.5683 29.25 51.5683 33.3409 49.5683 36.8863C47.5683 40.4318 44.6705 43.1932 40.8751 45.1704C37.1023 47.1477 32.5342 48.1363 27.1705 48.1363H9.6137V36.3068H24.7842C27.6251 36.3068 29.966 35.8182 31.8069 34.8409C33.6705 33.8409 35.0569 32.4659 35.966 30.7159C36.8978 28.9432 37.3637 26.9091 37.3637 24.6136C37.3637 22.2954 36.8978 20.2727 35.966 18.5454C35.0569 16.7954 33.6705 15.4432 31.8069 14.4886C29.9432 13.5113 27.5796 13.0227 24.716 13.0227H14.7614V70.7727H6.65188e-05ZM100.031 21.0341C99.7586 18.2841 98.5881 16.1477 96.52 14.625C94.4518 13.1022 91.645 12.3409 88.0995 12.3409C85.6904 12.3409 83.6563 12.6818 81.9972 13.3636C80.3381 14.0227 79.0654 14.9432 78.179 16.125C77.3154 17.3068 76.8836 18.6477 76.8836 20.1477C76.8381 21.3977 77.0995 22.4886 77.6677 23.4204C78.2586 24.3523 79.0654 25.1591 80.0881 25.8409C81.1109 26.5 82.2927 27.0795 83.6336 27.5795C84.9745 28.0568 86.4063 28.4659 87.929 28.8068L94.2018 30.3068C97.2472 30.9886 100.043 31.8977 102.588 33.0341C105.134 34.1704 107.338 35.5682 109.202 37.2272C111.065 38.8863 112.509 40.8409 113.531 43.0909C114.577 45.3409 115.111 47.9204 115.134 50.8295C115.111 55.1022 114.02 58.8068 111.861 61.9432C109.725 65.0568 106.634 67.4773 102.588 69.2045C98.5654 70.9091 93.7131 71.7613 88.0313 71.7613C82.395 71.7613 77.4859 70.8977 73.304 69.1704C69.145 67.4432 65.895 64.8863 63.554 61.5C61.2359 58.0909 60.02 53.875 59.9063 48.8522H74.1904C74.3495 51.1932 75.02 53.1477 76.2018 54.7159C77.4063 56.2613 79.0086 57.4318 81.0086 58.2272C83.0313 59 85.3154 59.3863 87.8609 59.3863C90.3609 59.3863 92.5313 59.0227 94.3722 58.2954C96.2359 57.5682 97.679 56.5568 98.7018 55.2613C99.7245 53.9659 100.236 52.4773 100.236 50.7954C100.236 49.2273 99.77 47.9091 98.8381 46.8409C97.929 45.7727 96.5881 44.8636 94.8154 44.1136C93.0654 43.3636 90.9177 42.6818 88.3722 42.0682L80.77 40.1591C74.8836 38.7272 70.2359 36.4886 66.8268 33.4432C63.4177 30.3977 61.7245 26.2954 61.7472 21.1363C61.7245 16.9091 62.8495 13.2159 65.1222 10.0568C67.4177 6.89771 70.5654 4.4318 74.5654 2.65907C78.5654 0.886339 83.1109 -2.47955e-05 88.2018 -2.47955e-05C93.3836 -2.47955e-05 97.9063 0.886339 101.77 2.65907C105.656 4.4318 108.679 6.89771 110.838 10.0568C112.997 13.2159 114.111 16.875 114.179 21.0341H100.031ZM120.972 0.954521H137.506L153.426 31.0227H154.108L170.028 0.954521H186.563L161.097 46.0909V70.7727H146.438V46.0909L120.972 0.954521ZM236.702 23.5227C236.225 21.8636 235.554 20.3977 234.69 19.125C233.827 17.8295 232.77 16.7386 231.52 15.8523C230.293 14.9432 228.884 14.25 227.293 13.7727C225.724 13.2954 223.986 13.0568 222.077 13.0568C218.509 13.0568 215.372 13.9432 212.668 15.7159C209.986 17.4886 207.895 20.0682 206.395 23.4545C204.895 26.8182 204.145 30.9318 204.145 35.7954C204.145 40.6591 204.884 44.7954 206.361 48.2045C207.838 51.6136 209.929 54.2159 212.634 56.0113C215.338 57.7841 218.531 58.6704 222.213 58.6704C225.554 58.6704 228.406 58.0795 230.77 56.8977C233.156 55.6932 234.975 54 236.225 51.8182C237.497 49.6363 238.134 47.0568 238.134 44.0795L241.134 44.5227H223.134V33.4091H252.35V42.2045C252.35 48.3409 251.054 53.6136 248.463 58.0227C245.872 62.4091 242.304 65.7954 237.759 68.1818C233.213 70.5454 228.009 71.7273 222.145 71.7273C215.599 71.7273 209.849 70.2841 204.895 67.3977C199.94 64.4886 196.077 60.3636 193.304 55.0227C190.554 49.6591 189.179 43.2954 189.179 35.9318C189.179 30.2727 189.997 25.2272 191.634 20.7954C193.293 16.3409 195.611 12.5682 198.588 9.47725C201.565 6.38634 205.031 4.03407 208.986 2.42043C212.94 0.806793 217.224 -2.47955e-05 221.838 -2.47955e-05C225.793 -2.47955e-05 229.474 0.579521 232.884 1.73861C236.293 2.87498 239.315 4.48861 241.952 6.57952C244.611 8.67043 246.781 11.1591 248.463 14.0454C250.145 16.9091 251.225 20.0682 251.702 23.5227H236.702ZM263.438 70.7727V0.954521H310.483V13.125H278.199V29.7613H308.063V41.9318H278.199V58.6022H310.619V70.7727H263.438ZM380.617 0.954521V70.7727H367.867L337.492 26.8295H336.98V70.7727H322.219V0.954521H335.173L365.31 44.8636H365.923V0.954521H380.617ZM407.574 0.954521V70.7727H392.813V0.954521H407.574ZM462.844 0.954521H477.605V46.2954C477.605 51.3863 476.389 55.8409 473.957 59.6591C471.548 63.4773 468.173 66.4545 463.832 68.5909C459.492 70.7045 454.435 71.7613 448.662 71.7613C442.867 71.7613 437.798 70.7045 433.457 68.5909C429.117 66.4545 425.742 63.4773 423.332 59.6591C420.923 55.8409 419.719 51.3863 419.719 46.2954V0.954521H434.48V45.0341C434.48 47.6932 435.06 50.0568 436.219 52.125C437.401 54.1932 439.06 55.8182 441.196 57C443.332 58.1818 445.821 58.7727 448.662 58.7727C451.526 58.7727 454.014 58.1818 456.128 57C458.264 55.8182 459.912 54.1932 461.071 52.125C462.253 50.0568 462.844 47.6932 462.844 45.0341V0.954521ZM527.625 21.0341C527.352 18.2841 526.182 16.1477 524.114 14.625C522.046 13.1022 519.239 12.3409 515.693 12.3409C513.284 12.3409 511.25 12.6818 509.591 13.3636C507.932 14.0227 506.659 14.9432 505.773 16.125C504.909 17.3068 504.477 18.6477 504.477 20.1477C504.432 21.3977 504.693 22.4886 505.261 23.4204C505.852 24.3523 506.659 25.1591 507.682 25.8409C508.705 26.5 509.886 27.0795 511.227 27.5795C512.568 28.0568 514 28.4659 515.523 28.8068L521.796 30.3068C524.841 30.9886 527.636 31.8977 530.182 33.0341C532.727 34.1704 534.932 35.5682 536.796 37.2272C538.659 38.8863 540.102 40.8409 541.125 43.0909C542.171 45.3409 542.705 47.9204 542.727 50.8295C542.705 55.1022 541.614 58.8068 539.455 61.9432C537.318 65.0568 534.227 67.4773 530.182 69.2045C526.159 70.9091 521.307 71.7613 515.625 71.7613C509.989 71.7613 505.08 70.8977 500.898 69.1704C496.739 67.4432 493.489 64.8863 491.148 61.5C488.83 58.0909 487.614 53.875 487.5 48.8522H501.784C501.943 51.1932 502.614 53.1477 503.796 54.7159C505 56.2613 506.602 57.4318 508.602 58.2272C510.625 59 512.909 59.3863 515.455 59.3863C517.955 59.3863 520.125 59.0227 521.966 58.2954C523.83 57.5682 525.273 56.5568 526.296 55.2613C527.318 53.9659 527.83 52.4773 527.83 50.7954C527.83 49.2273 527.364 47.9091 526.432 46.8409C525.523 45.7727 524.182 44.8636 522.409 44.1136C520.659 43.3636 518.511 42.6818 515.966 42.0682L508.364 40.1591C502.477 38.7272 497.83 36.4886 494.421 33.4432C491.011 30.3977 489.318 26.2954 489.341 21.1363C489.318 16.9091 490.443 13.2159 492.716 10.0568C495.011 6.89771 498.159 4.4318 502.159 2.65907C506.159 0.886339 510.705 -2.47955e-05 515.796 -2.47955e-05C520.977 -2.47955e-05 525.5 0.886339 529.364 2.65907C533.25 4.4318 536.273 6.89771 538.432 10.0568C540.591 13.2159 541.705 16.875 541.773 21.0341H527.625Z" fill="url(#paint0_linear_881_163)"/>
<defs>
<linearGradient id="paint0_linear_881_163" x1="-6.06812" y1="35.7727" x2="546.932" y2="35.7727" gradientUnits="userSpaceOnUse">
<stop stop-color="#5538C0"/>
<stop offset="1" stop-color="#48BFDF"/>
</linearGradient>
</defs>
</svg>
